# xmcd
#
# Track frame offsets: 
#        150
#        12591
#        30185
#        47685
#        64837
#        79322
#        92462
#        109893
#        127100
#        143136
#
# Disc length: 2141 seconds
#
# Revision: 0
# Processed by: cddbd v1.5.1PL2 Copyright (c) Steve Scherf et al.
# Submitted via: ExactAudioCopy v0.95b4
#
DISCID=81085b0a
DTITLE=หมี  งามดี - ถงซ่งขาด
DYEAR=1900
DGENRE=Country
TTITLE0=ถงซ่งขาด
TTITLE1=เงินล้านประหารใจ
TTITLE2=เจ้าบ่าวอาสา
TTITLE3=พระเอกกำมะลอ
TTITLE4=คนเลวหลายใจ
TTITLE5=ไปดีเถิดน้อง
TTITLE6=คอยเจ้าอยู่หม่องเก่า
TTITLE7=คึดฮอดบ้านเฮา
TTITLE8=เหล้าขาวเพื่อนซี้
TTITLE9=รอน้องที่เถียงนาโซ
EXTD=
EXTT0=
EXTT1=
EXTT2=
EXTT3=
EXTT4=
EXTT5=
EXTT6=
EXTT7=
EXTT8=
EXTT9=
PLAYORDER=
